<mxfile host="app.diagrams.net" modified="2023-11-11T14:36:18.152Z" agent="Mozilla/5.0 (Windows NT 10.0; Win64; x64) AppleWebKit/537.36 (KHTML, like Gecko) Chrome/119.0.0.0 Safari/537.36" version="22.1.0" etag="8taksyNpYCnQYUwspJwA" type="device">
  <diagram id="QZsOsYLbJQSj5NQ_Q4ck" name="第 1 页">
    <mxGraphModel dx="1354" dy="602" grid="0" gridSize="10" guides="1" tooltips="1" connect="1" arrows="1" fold="1" page="0" pageScale="1" pageWidth="827" pageHeight="1169" math="0" shadow="0">
      <root>
        <mxCell id="0" />
        <mxCell id="1" parent="0" />
        <mxCell id="xzN-qERmQtVIF9rkbty5-15" style="edgeStyle=orthogonalEdgeStyle;rounded=0;orthogonalLoop=1;jettySize=auto;html=1;entryX=0.5;entryY=0;entryDx=0;entryDy=0;" edge="1" parent="1" source="xzN-qERmQtVIF9rkbty5-1" target="xzN-qERmQtVIF9rkbty5-2">
          <mxGeometry relative="1" as="geometry" />
        </mxCell>
        <mxCell id="xzN-qERmQtVIF9rkbty5-1" value="&lt;font style=&quot;font-size: 14px;&quot;&gt;write mode&lt;/font&gt;" style="rounded=0;whiteSpace=wrap;html=1;fillColor=#fff2cc;strokeColor=#d6b656;" vertex="1" parent="1">
          <mxGeometry x="72" y="34" width="120" height="60" as="geometry" />
        </mxCell>
        <mxCell id="xzN-qERmQtVIF9rkbty5-16" style="edgeStyle=orthogonalEdgeStyle;rounded=0;orthogonalLoop=1;jettySize=auto;html=1;entryX=0.5;entryY=0;entryDx=0;entryDy=0;" edge="1" parent="1" source="xzN-qERmQtVIF9rkbty5-2" target="xzN-qERmQtVIF9rkbty5-3">
          <mxGeometry relative="1" as="geometry" />
        </mxCell>
        <mxCell id="xzN-qERmQtVIF9rkbty5-2" value="&lt;font style=&quot;font-size: 14px;&quot;&gt;get socket instances&lt;/font&gt;" style="rounded=0;whiteSpace=wrap;html=1;fillColor=#fff2cc;strokeColor=#d6b656;" vertex="1" parent="1">
          <mxGeometry x="72" y="138" width="120" height="60" as="geometry" />
        </mxCell>
        <mxCell id="xzN-qERmQtVIF9rkbty5-17" style="edgeStyle=orthogonalEdgeStyle;rounded=0;orthogonalLoop=1;jettySize=auto;html=1;entryX=0;entryY=0.5;entryDx=0;entryDy=0;" edge="1" parent="1" source="xzN-qERmQtVIF9rkbty5-3" target="xzN-qERmQtVIF9rkbty5-4">
          <mxGeometry relative="1" as="geometry" />
        </mxCell>
        <mxCell id="xzN-qERmQtVIF9rkbty5-3" value="&lt;font style=&quot;font-size: 14px;&quot;&gt;get arguments&lt;/font&gt;" style="rounded=0;whiteSpace=wrap;html=1;fillColor=#fff2cc;strokeColor=#d6b656;" vertex="1" parent="1">
          <mxGeometry x="72" y="242" width="120" height="60" as="geometry" />
        </mxCell>
        <mxCell id="xzN-qERmQtVIF9rkbty5-7" style="edgeStyle=orthogonalEdgeStyle;rounded=0;orthogonalLoop=1;jettySize=auto;html=1;" edge="1" parent="1" source="xzN-qERmQtVIF9rkbty5-4" target="xzN-qERmQtVIF9rkbty5-6">
          <mxGeometry relative="1" as="geometry" />
        </mxCell>
        <mxCell id="xzN-qERmQtVIF9rkbty5-8" style="edgeStyle=orthogonalEdgeStyle;rounded=0;orthogonalLoop=1;jettySize=auto;html=1;entryX=0.5;entryY=0;entryDx=0;entryDy=0;" edge="1" parent="1" source="xzN-qERmQtVIF9rkbty5-4" target="xzN-qERmQtVIF9rkbty5-5">
          <mxGeometry relative="1" as="geometry" />
        </mxCell>
        <mxCell id="xzN-qERmQtVIF9rkbty5-4" value="&lt;font style=&quot;font-size: 14px;&quot;&gt;binary mode?&lt;/font&gt;" style="rhombus;whiteSpace=wrap;html=1;fillColor=#ffe6cc;strokeColor=#d79b00;" vertex="1" parent="1">
          <mxGeometry x="258" y="24" width="190" height="80" as="geometry" />
        </mxCell>
        <mxCell id="xzN-qERmQtVIF9rkbty5-18" style="edgeStyle=orthogonalEdgeStyle;rounded=0;orthogonalLoop=1;jettySize=auto;html=1;entryX=0.5;entryY=0;entryDx=0;entryDy=0;" edge="1" parent="1" source="xzN-qERmQtVIF9rkbty5-5" target="xzN-qERmQtVIF9rkbty5-12">
          <mxGeometry relative="1" as="geometry" />
        </mxCell>
        <mxCell id="xzN-qERmQtVIF9rkbty5-5" value="&lt;font style=&quot;font-size: 14px;&quot;&gt;transfer to raw data&lt;/font&gt;" style="rounded=0;whiteSpace=wrap;html=1;fillColor=#fff2cc;strokeColor=#d6b656;" vertex="1" parent="1">
          <mxGeometry x="293" y="141" width="120" height="60" as="geometry" />
        </mxCell>
        <mxCell id="xzN-qERmQtVIF9rkbty5-9" style="edgeStyle=orthogonalEdgeStyle;rounded=0;orthogonalLoop=1;jettySize=auto;html=1;entryX=1;entryY=0.5;entryDx=0;entryDy=0;exitX=0.5;exitY=1;exitDx=0;exitDy=0;" edge="1" parent="1" source="xzN-qERmQtVIF9rkbty5-6" target="xzN-qERmQtVIF9rkbty5-5">
          <mxGeometry relative="1" as="geometry" />
        </mxCell>
        <mxCell id="xzN-qERmQtVIF9rkbty5-6" value="&lt;span style=&quot;font-size: 14px;&quot;&gt;parsing bin string&lt;/span&gt;" style="rounded=0;whiteSpace=wrap;html=1;fillColor=#d80073;fontColor=#ffffff;strokeColor=#A50040;" vertex="1" parent="1">
          <mxGeometry x="495" y="34" width="120" height="60" as="geometry" />
        </mxCell>
        <mxCell id="xzN-qERmQtVIF9rkbty5-25" style="edgeStyle=orthogonalEdgeStyle;rounded=0;orthogonalLoop=1;jettySize=auto;html=1;" edge="1" parent="1" source="xzN-qERmQtVIF9rkbty5-12">
          <mxGeometry relative="1" as="geometry">
            <mxPoint x="353" y="332" as="targetPoint" />
          </mxGeometry>
        </mxCell>
        <mxCell id="xzN-qERmQtVIF9rkbty5-12" value="&lt;span style=&quot;font-size: 14px;&quot;&gt;send/sendto&lt;/span&gt;" style="rounded=0;whiteSpace=wrap;html=1;fillColor=#fff2cc;strokeColor=#d6b656;" vertex="1" parent="1">
          <mxGeometry x="293" y="242" width="120" height="60" as="geometry" />
        </mxCell>
        <mxCell id="xzN-qERmQtVIF9rkbty5-14" value="&lt;span style=&quot;font-size: 14px;&quot;&gt;socket monitor&lt;/span&gt;" style="rounded=0;whiteSpace=wrap;html=1;fillColor=#f8cecc;strokeColor=#b85450;" vertex="1" parent="1">
          <mxGeometry x="-96" y="343" width="120" height="60" as="geometry" />
        </mxCell>
        <mxCell id="xzN-qERmQtVIF9rkbty5-22" value="&lt;span style=&quot;font-size: 14px;&quot;&gt;response to modem&lt;/span&gt;" style="rounded=0;whiteSpace=wrap;html=1;fillColor=#fff2cc;strokeColor=#d6b656;" vertex="1" parent="1">
          <mxGeometry x="291" y="444" width="120" height="60" as="geometry" />
        </mxCell>
        <mxCell id="xzN-qERmQtVIF9rkbty5-26" style="edgeStyle=orthogonalEdgeStyle;rounded=0;orthogonalLoop=1;jettySize=auto;html=1;entryX=0.5;entryY=0;entryDx=0;entryDy=0;" edge="1" parent="1" source="xzN-qERmQtVIF9rkbty5-24" target="xzN-qERmQtVIF9rkbty5-22">
          <mxGeometry relative="1" as="geometry" />
        </mxCell>
        <mxCell id="xzN-qERmQtVIF9rkbty5-27" style="edgeStyle=orthogonalEdgeStyle;rounded=0;orthogonalLoop=1;jettySize=auto;html=1;entryX=1;entryY=0.5;entryDx=0;entryDy=0;dashed=1;" edge="1" parent="1" source="xzN-qERmQtVIF9rkbty5-24" target="xzN-qERmQtVIF9rkbty5-14">
          <mxGeometry relative="1" as="geometry" />
        </mxCell>
        <mxCell id="xzN-qERmQtVIF9rkbty5-28" value="send event" style="edgeLabel;html=1;align=center;verticalAlign=middle;resizable=0;points=[];" vertex="1" connectable="0" parent="xzN-qERmQtVIF9rkbty5-27">
          <mxGeometry x="-0.0991" y="-2" relative="1" as="geometry">
            <mxPoint x="1" as="offset" />
          </mxGeometry>
        </mxCell>
        <mxCell id="xzN-qERmQtVIF9rkbty5-24" value="&lt;font style=&quot;font-size: 14px;&quot;&gt;error occured?&lt;/font&gt;" style="rhombus;whiteSpace=wrap;html=1;fillColor=#ffe6cc;strokeColor=#d79b00;" vertex="1" parent="1">
          <mxGeometry x="256" y="333" width="190" height="80" as="geometry" />
        </mxCell>
      </root>
    </mxGraphModel>
  </diagram>
</mxfile>
